<svg width="158" height="80" viewBox="0 0 158 80" fill="none" xmlns="http://www.w3.org/2000/svg">
<path d="M0.824219 43.0806V12.4604H12.6718C14.4795 12.4604 15.9952 12.7803 17.2189 13.4199C18.4704 14.0596 19.4855 15.033 20.2643 16.3401C21.0708 17.6194 21.6548 19.2186 22.0164 21.1375C22.3779 23.0287 22.5587 25.2397 22.5587 27.7705C22.5587 30.9132 22.1832 33.6248 21.4323 35.9053C20.7092 38.1858 19.6107 39.9518 18.1367 41.2033C16.6905 42.4548 14.8689 43.0806 12.6718 43.0806H0.824219ZM3.24379 40.9113H12.5049C14.2848 40.9113 15.731 40.369 16.8435 39.2844C17.9559 38.1719 18.7764 36.6284 19.3048 34.6538C19.861 32.6792 20.1391 30.3848 20.1391 27.7705C20.1391 25.4066 19.9861 23.3902 19.6802 21.7216C19.4021 20.0529 18.9571 18.7041 18.3453 17.675C17.7334 16.6182 16.9408 15.8534 15.9674 15.3806C15.0218 14.88 13.8677 14.6297 12.5049 14.6297H3.24379V40.9113Z" fill="#5D9FB1"/>
<path d="M26.4488 43.0806L37.2534 12.4604H40.3822L51.1868 43.0806H48.6421L45.2631 33.5691H32.3308L28.9935 43.0806H26.4488ZM32.9566 31.3999H44.5539L38.7969 14.6297L32.9566 31.3999Z" fill="#5D9FB1"/>
<path d="M56.1886 43.0806V12.4604H58.6082V43.0806H56.1886Z" fill="#5D9FB1"/>
<path d="M71.236 43.0806C70.1792 43.0806 69.2058 42.9137 68.3158 42.58C67.4259 42.2462 66.7167 41.6622 66.1883 40.8279C65.6599 39.9657 65.3957 38.7837 65.3957 37.2819V12.4604H67.8152V36.9899C67.8152 38.0746 67.996 38.895 68.3575 39.4512C68.7469 40.0074 69.2336 40.3829 69.8176 40.5776C70.4295 40.7444 71.0413 40.8279 71.6532 40.8279H83.0001V43.0806H71.236Z" fill="#5D9FB1"/>
<path d="M94.3093 43.0806V32.6514L84.4224 12.4604H86.9672L95.5608 30.2318L104.154 12.4604H106.657L96.7289 32.6514V43.0806H94.3093Z" fill="#5D9FB1"/>
<path d="M8.4584 79.7914L1.07452 48.9209H7.45719L12.4215 70.6971L18.2201 48.9209H23.8936L29.6505 70.6971L34.6148 48.9209H40.9975L33.6136 79.7914H27.3144L21.0569 58.0152L14.7576 79.7914H8.4584Z" fill="#3F7483"/>
<path d="M44.3854 79.7914V48.9209H57.1507C58.3744 48.9209 59.5147 49.0739 60.5715 49.3798C61.6283 49.6579 62.56 50.1585 63.3665 50.8816C64.173 51.6047 64.7988 52.6059 65.2438 53.8852C65.7166 55.1646 65.953 56.8054 65.953 58.8078C65.953 60.2262 65.8139 61.436 65.5358 62.4372C65.2577 63.4384 64.8822 64.2588 64.4094 64.8985C63.9645 65.5381 63.45 66.0526 62.8659 66.442C62.2819 66.8314 61.6839 67.1512 61.0721 67.4015L66.829 79.7914H60.5298L55.5655 68.361C55.2317 68.361 54.8424 68.361 54.3974 68.361C53.9802 68.3332 53.5492 68.3193 53.1042 68.3193C52.6592 68.3193 52.2142 68.3193 51.7692 68.3193C51.3243 68.3193 50.921 68.3054 50.5595 68.2775V79.7914H44.3854ZM50.5595 63.3967H56.0661C56.6223 63.3967 57.1229 63.3271 57.5679 63.1881C58.0129 63.049 58.4022 62.8126 58.736 62.4789C59.0697 62.1174 59.32 61.6446 59.4869 61.0605C59.6815 60.4765 59.7789 59.7256 59.7789 58.8078C59.7789 57.9457 59.6815 57.2365 59.4869 56.6803C59.32 56.0962 59.0697 55.6512 58.736 55.3453C58.4022 55.0116 58.0129 54.7891 57.5679 54.6779C57.1229 54.5388 56.6223 54.4693 56.0661 54.4693H50.5595V63.3967Z" fill="#3F7483"/>
<path d="M70.5399 79.7914V48.9209H76.7139V79.7914H70.5399Z" fill="#3F7483"/>
<path d="M88.5351 79.7914V54.4693H80.0666V48.9209H103.219V54.4693H94.7092V79.7914H88.5351Z" fill="#3F7483"/>
<path d="M113.655 80C112.987 80 112.223 79.9304 111.36 79.7914C110.498 79.6801 109.664 79.402 108.857 78.957C108.079 78.5121 107.425 77.8446 106.897 76.9546C106.396 76.0369 106.146 74.7854 106.146 73.2001V55.9711C106.146 54.6083 106.354 53.4681 106.772 52.5503C107.189 51.6325 107.745 50.9094 108.44 50.381C109.136 49.8526 109.9 49.4772 110.735 49.2547C111.569 49.0322 112.389 48.9209 113.196 48.9209C115.282 48.9209 117.117 48.9487 118.703 49.0044C120.316 49.06 121.762 49.1295 123.041 49.213C124.32 49.2686 125.489 49.352 126.545 49.4633V54.6361H115.031C114.169 54.6361 113.502 54.8447 113.029 55.2619C112.556 55.6791 112.32 56.3187 112.32 57.1809V61.6446L124.543 61.9783V66.8592L112.32 67.1929V71.448C112.32 72.1711 112.431 72.7412 112.654 73.1584C112.904 73.5478 113.224 73.8259 113.613 73.9927C114.03 74.1318 114.461 74.2013 114.906 74.2013H126.545V79.3742C125.322 79.5133 123.959 79.6245 122.457 79.7079C120.983 79.7914 119.481 79.8609 117.952 79.9165C116.45 79.9722 115.018 80 113.655 80Z" fill="#3F7483"/>
<path d="M131.037 79.7914V48.9209H143.803C145.026 48.9209 146.167 49.0739 147.224 49.3798C148.28 49.6579 149.212 50.1585 150.019 50.8816C150.825 51.6047 151.451 52.6059 151.896 53.8852C152.369 55.1646 152.605 56.8054 152.605 58.8078C152.605 60.2262 152.466 61.436 152.188 62.4372C151.91 63.4384 151.534 64.2588 151.061 64.8985C150.616 65.5381 150.102 66.0526 149.518 66.442C148.934 66.8314 148.336 67.1512 147.724 67.4015L153.481 79.7914H147.182L142.217 68.361C141.884 68.361 141.494 68.361 141.049 68.361C140.632 68.3332 140.201 68.3193 139.756 68.3193C139.311 68.3193 138.866 68.3193 138.421 68.3193C137.976 68.3193 137.573 68.3054 137.211 68.2775V79.7914H131.037ZM137.211 63.3967H142.718C143.274 63.3967 143.775 63.3271 144.22 63.1881C144.665 63.049 145.054 62.8126 145.388 62.4789C145.722 62.1174 145.972 61.6446 146.139 61.0605C146.334 60.4765 146.431 59.7256 146.431 58.8078C146.431 57.9457 146.334 57.2365 146.139 56.6803C145.972 56.0962 145.722 55.6512 145.388 55.3453C145.054 55.0116 144.665 54.7891 144.22 54.6779C143.775 54.5388 143.274 54.4693 142.718 54.4693H137.211V63.3967Z" fill="#3F7483"/>
<path d="M137.551 10.5883L129.587 12.5788C129.375 12.6316 129.181 12.7385 129.024 12.889C128.866 13.0395 128.75 13.2285 128.688 13.4372L122.55 33.8942L130.451 24.2366C130.451 23.7444 130.597 23.2633 130.87 22.8541C131.144 22.4449 131.532 22.1259 131.987 21.9376C132.442 21.7493 132.942 21.7 133.425 21.796C133.907 21.892 134.351 22.129 134.699 22.477C135.047 22.825 135.284 23.2684 135.38 23.7511C135.476 24.2338 135.427 24.7342 135.238 25.1889C135.05 25.6436 134.731 26.0322 134.322 26.3057C133.913 26.5791 133.431 26.725 132.939 26.725L123.288 34.6211L143.741 28.4853C143.949 28.4224 144.136 28.3068 144.286 28.1497C144.436 27.9927 144.542 27.7996 144.595 27.5892L146.588 19.6221L137.551 10.5858V10.5883Z" fill="#3F7483"/>
<path fill-rule="evenodd" clip-rule="evenodd" d="M148.445 37.5769C141.635 44.3866 131.151 45.283 123.374 40.266L119.334 41.4783C118.305 41.787 117.189 41.5058 116.43 40.7462C115.67 39.9865 115.389 38.8711 115.698 37.8421L116.92 33.7665C111.995 26.0028 112.918 15.596 119.691 8.82336C124.634 3.88035 131.513 2.05303 137.887 3.34139L140.003 1.2257C140.39 0.8373 140.851 0.529123 141.358 0.3188C141.865 0.108314 142.409 -3.05296e-05 142.958 -3.05176e-05C143.507 -3.05056e-05 144.051 0.108316 144.558 0.3188C145.065 0.529137 145.526 0.837345 145.913 1.22581L155.95 11.2625C156.338 11.6502 156.647 12.1107 156.857 12.6176C157.068 13.1249 157.176 13.6687 157.176 14.2178C157.176 14.767 157.068 15.3108 156.857 15.8181C156.647 16.325 156.338 16.7855 155.95 17.1732L155.949 17.1739L153.895 19.2281C155.244 25.645 153.427 32.5944 148.445 37.5769ZM142.069 3.28892C142.186 3.17204 142.325 3.07931 142.477 3.01604C142.629 2.95277 142.793 2.9202 142.958 2.9202C143.123 2.9202 143.287 2.95277 143.439 3.01604C143.592 3.07931 143.73 3.17204 143.847 3.28892L153.887 13.3293C154.004 13.4459 154.097 13.5844 154.16 13.7369C154.223 13.8893 154.256 14.0528 154.256 14.2179C154.256 14.383 154.223 14.5464 154.16 14.6989C154.097 14.8514 154.004 14.9899 153.887 15.1065L149.113 19.8807L147.032 28.1966C146.874 28.8298 146.554 29.4111 146.103 29.8832C145.652 30.3554 145.087 30.7023 144.462 30.89L118.495 38.6813L126.286 12.7118C126.474 12.0875 126.82 11.5226 127.292 11.0724C127.764 10.6223 128.344 10.3024 128.977 10.144L137.293 8.06564L142.069 3.28892Z" fill="#3F7483"/>
</svg>
